<?xml version="1.0" encoding="UTF-8"?>
<svg xmlns="http://www.w3.org/2000/svg" width="88" height="88" viewBox="0 0 88 88" fill="none">
  <g filter="url(#filter0_d_209_2194)">
    <circle cx="44" cy="42" r="40" fill="#F7FBFE"></circle>
  </g>
  <path d="M39.625 40.2031C39.8156 40.0913 39.9736 39.9314 40.0832 39.7395C40.1929 39.5476 40.2504 39.3304 40.25 39.1094V27.8594C40.2517 27.658 40.2048 27.4592 40.1132 27.2799C40.0216 27.1006 39.8881 26.946 39.7239 26.8294C39.5597 26.7128 39.3698 26.6376 39.1703 26.6102C38.9708 26.5827 38.7677 26.6039 38.5781 26.6719C35.4135 27.7992 32.6745 29.877 30.7362 32.6209C28.7979 35.3647 27.7549 38.6406 27.75 42C27.7517 42.9954 27.8406 43.9888 28.0156 44.9687C28.0532 45.1645 28.1364 45.3486 28.2586 45.5061C28.3808 45.6636 28.5385 45.79 28.7188 45.875C28.8851 45.9534 29.0661 45.996 29.25 46C29.4698 45.9987 29.6854 45.9394 29.875 45.8281L39.625 40.2031ZM37.75 29.75V38.3906L30.2656 42.7187C30.25 42.4687 30.25 42.2344 30.25 42C30.2548 39.4663 30.9572 36.9829 32.2802 34.822C33.6031 32.6612 35.4956 30.9064 37.75 29.75Z" fill="#024751"></path>
  <path d="M58.109 33.9375C58.0929 33.9201 58.082 33.8984 58.0778 33.875L58.0153 33.7969C56.5853 31.3484 54.5389 29.3172 52.0799 27.9054C49.621 26.4936 46.8351 25.7505 43.9997 25.75C43.6681 25.75 43.3502 25.8817 43.1158 26.1161C42.8813 26.3505 42.7497 26.6685 42.7497 27V41.2813L30.3903 48.4219C30.2462 48.5015 30.1195 48.6091 30.0177 48.7384C29.9158 48.8677 29.8409 49.016 29.7972 49.1747C29.7535 49.3334 29.742 49.4992 29.7634 49.6624C29.7847 49.8256 29.8385 49.9829 29.9215 50.125V50.1562L29.9684 50.2344C31.7708 53.3198 34.54 55.7251 37.8473 57.078C41.1546 58.4309 44.8156 58.6559 48.2637 57.7183C51.7118 56.7807 54.7547 54.7326 56.9215 51.8912C59.0882 49.0497 60.2579 45.5733 60.2497 42C60.2535 39.1715 59.5154 36.3916 58.109 33.9375Z" fill="#024751"></path>
  <defs>
    <filter id="filter0_d_209_2194" x="0" y="0" width="88" height="88" color-interpolation-filters="sRGB">
      <feFlood flood-opacity="0" result="BackgroundImageFix"></feFlood>
      <feColorMatrix in="SourceAlpha" type="matrix" values="0 0 0 0 0 0 0 0 0 0 0 0 0 0 0 0 0 0 127 0" result="hardAlpha"></feColorMatrix>
      <feOffset dy="2"></feOffset>
      <feGaussianBlur stdDeviation="2"></feGaussianBlur>
      <feComposite in2="hardAlpha" operator="out"></feComposite>
      <feColorMatrix type="matrix" values="0 0 0 0 0.00784314 0 0 0 0 0.278431 0 0 0 0 0.317647 0 0 0 0.15 0"></feColorMatrix>
      <feBlend mode="normal" in2="BackgroundImageFix" result="effect1_dropShadow_209_2194"></feBlend>
      <feBlend mode="normal" in="SourceGraphic" in2="effect1_dropShadow_209_2194" result="shape"></feBlend>
    </filter>
  </defs>
</svg>
